<svg width="1053" height="569" viewBox="0 0 1053 569" fill="none" xmlns="http://www.w3.org/2000/svg">
<g opacity="0.3">
<path d="M351.358 910.635C29.1957 910.635 -11.4125 698.888 2.97719 592.152C24.7513 430.656 203.297 345.435 229.424 296.096C255.553 246.732 229.424 174.967 229.424 174.967C229.424 174.967 416.68 300.581 333.939 430.656C251.2 560.755 399.261 717.767 429.743 623.55C460.228 529.358 434.099 457.568 434.099 457.568C434.099 457.568 542.967 488.965 560.386 654.947C577.804 820.929 394.903 910.635 351.358 910.635Z" fill="#FC0001"/>
<path d="M590.878 143.535C427.141 238.415 486.363 354.373 577.812 444.102C690.634 554.777 734.585 731.198 490.718 807.456C302.463 866.333 381.849 919.61 381.849 919.61C381.849 919.61 810.246 1013.88 961.031 744.643C1091.68 511.379 852.162 264.67 852.162 264.67C852.162 264.67 882.646 444.102 752.005 430.657C639.51 419.061 636.903 311.054 686.683 215.329C752.005 89.7291 630.07 6.10352e-05 630.07 6.10352e-05C630.07 6.10352e-05 660.554 103.174 590.878 143.535Z" fill="#FC0001"/>
<path d="M281.685 345.429C-71.0525 506.918 -36.2157 838.861 168.459 915.123C373.134 991.385 534.257 865.78 538.613 744.669C542.967 623.559 503.774 547.297 503.774 547.297C503.774 547.297 442.808 753.634 320.875 650.477C198.942 547.297 281.685 345.429 281.685 345.429Z" fill="#FB6D01"/>
<path d="M657.273 457.581C496.148 394.792 502.805 245.814 540.784 207.496C593.041 154.783 619.708 163.892 644.21 136.855C674.691 103.196 657.273 39.2809 657.273 39.2809C657.273 39.2809 735.661 127.877 670.338 197.419C614.007 257.356 600.663 376.837 657.273 457.581Z" fill="#FB6D01"/>
<path d="M877.567 311.017C1104.01 542.036 980.63 838.855 817.328 894.925C654.023 950.995 627.894 948.765 564.751 912.863C501.606 876.986 582.17 726.715 697.571 699.782C812.972 672.875 756.361 645.967 701.927 583.158C647.489 520.349 667.812 399.239 667.812 399.239C667.812 399.239 751.279 494.201 829.668 457.564C904.412 422.618 877.567 311.017 877.567 311.017Z" fill="#FB6D01"/>
<path d="M719.326 486.748C677.957 625.817 891.34 652.735 863.033 760.387C834.726 868.039 627.877 894.958 627.877 894.958C627.877 894.958 881.357 945.937 958.837 778.333C1024.16 637.015 904.402 569.73 821.662 563.006C723.771 555.041 719.326 486.748 719.326 486.748Z" fill="#EFA204"/>
<path d="M904.416 357.384C1052.48 546.531 955.727 668.294 894.255 607.836C832.782 547.403 944.334 463.548 904.416 357.384Z" fill="#EFA204"/>
<path d="M212.002 412.727C-25.3299 589.909 -7.18559 771.604 110.392 870.285C227.97 968.966 427.562 966.721 475.464 847.86C523.366 728.975 447.158 708.794 303.451 677.389C159.747 645.984 212.002 412.727 212.002 412.727Z" fill="#EFA204"/>
<path d="M614.815 527.119C730.213 619.076 769.404 720.003 725.86 809.734C682.311 899.442 490.704 935.325 521.186 829.901C551.671 724.5 645.296 704.31 645.296 625.798C645.296 547.309 614.815 527.119 614.815 527.119Z" fill="#EFA204"/>
<path d="M148.868 495.687C-10.0794 677.367 66.8549 880.714 167.014 907.64C267.173 934.566 416.687 876.997 427.573 814.194C438.461 751.39 421.041 719.976 421.041 719.976C421.041 719.976 444.995 751.39 362.253 796.243C279.512 841.096 262.094 829.877 262.094 829.877C262.094 829.877 305.639 767.073 207.659 659.417C109.676 551.76 148.868 495.687 148.868 495.687Z" fill="#FACF67"/>
<path d="M479.828 554.01C547.326 650.444 508.135 749.157 508.135 749.157C508.135 749.157 508.135 711.02 475.473 672.884C442.813 634.748 479.828 554.01 479.828 554.01Z" fill="#FACF67"/>
<path d="M880.463 820.922C986.371 733.65 954.495 643.737 871.753 603.35C789.015 562.986 782.481 574.19 782.481 574.19C782.481 574.19 847.72 647.089 865.221 681.851C895.705 742.42 876.107 820.922 799.901 861.286C723.69 901.673 826.029 865.786 880.463 820.922Z" fill="#FACF67"/>
<path d="M634.42 165.992C551.68 217.571 501.598 251.22 521.194 331.979C546.245 435.188 634.42 430.667 634.42 430.667C634.42 430.667 577.808 374.593 584.338 305.059C590.871 235.526 634.42 165.992 634.42 165.992Z" fill="#FACF67"/>
<path d="M762.879 372.351C830.377 305.07 780.04 277.06 769.41 224.308C761.429 184.68 789.007 143.572 789.007 143.572C789.007 143.572 718.544 215.371 747.637 261.689C795.541 337.957 762.879 372.351 762.879 372.351Z" fill="#FC0001"/>
<path d="M333.937 212.359C351.356 266.198 350.501 293.996 310.711 342.436C230.873 439.642 293.292 505.434 291.84 500.939C290.389 496.469 284.015 405.591 333.937 364.886C403.611 308.059 333.937 212.359 333.937 212.359Z" fill="#FCE8B3"/>
<path d="M377.493 509.895C349.913 569.717 374.59 601.107 374.59 601.107L377.493 509.895Z" fill="#FC0001"/>
<path d="M933.452 471.014C998.775 539.799 1011.84 605.598 958.132 705.765C965.39 659.422 920.39 625.029 920.39 625.029C920.39 625.029 962.777 587.672 961.034 551.75C959.581 521.85 933.452 471.014 933.452 471.014Z" fill="#FCE8B3"/>
<path d="M906.586 601.882C934.891 526.36 881.909 498.694 841.264 471.775C800.62 444.881 803.523 373.845 803.523 373.845C803.523 373.845 751.995 425.44 782.476 500.937C804.812 556.27 906.586 601.882 906.586 601.882Z" fill="#FACF67"/>
</g>
</svg>
